<svg width="14" height="15" viewBox="0 0 14 15" fill="none" xmlns="http://www.w3.org/2000/svg">
<path d="M9.83749 14.5005C9.68809 14.501 9.54048 14.4681 9.4055 14.404C9.27052 14.34 9.15161 14.2465 9.05749 14.1305L4.22749 8.13052C4.08041 7.95159 4 7.72714 4 7.49552C4 7.26389 4.08041 7.03945 4.22749 6.86052L9.22749 0.86052C9.39723 0.656303 9.64114 0.527879 9.90556 0.503499C10.17 0.479119 10.4333 0.560781 10.6375 0.73052C10.8417 0.900258 10.9701 1.14417 10.9945 1.4086C11.0189 1.67302 10.9372 1.9363 10.7675 2.14052L6.29749 7.50052L10.6175 12.8605C10.7398 13.0073 10.8174 13.186 10.8413 13.3756C10.8652 13.5651 10.8343 13.7576 10.7522 13.9301C10.6702 14.1026 10.5404 14.248 10.3783 14.3491C10.2162 14.4502 10.0285 14.5028 9.83749 14.5005Z" fill="#667081"/>
</svg>
