<svg width="30" height="15" viewBox="0 0 30 15" fill="none" xmlns="http://www.w3.org/2000/svg">
<rect width="14" height="14" transform="translate(7.89131 0.149994)" fill="white"/>
<path fill-rule="evenodd" clip-rule="evenodd" d="M10.808 11.8167H18.9746C19.1293 11.8167 19.2777 11.8781 19.3871 11.9875C19.4965 12.0969 19.558 12.2453 19.558 12.4C19.558 12.5547 19.4965 12.7031 19.3871 12.8125C19.2777 12.9219 19.1293 12.9833 18.9746 12.9833H10.808C10.6533 12.9833 10.5049 12.9219 10.3955 12.8125C10.2861 12.7031 10.2246 12.5547 10.2246 12.4C10.2246 12.2453 10.2861 12.0969 10.3955 11.9875C10.5049 11.8781 10.6533 11.8167 10.808 11.8167ZM10.2246 8.89998L16.058 3.06665L17.808 4.81665L11.9746 10.65H10.2246V8.89998ZM16.6413 2.48332L17.808 1.31665L19.558 3.06665L18.3907 4.2339L16.6413 2.48332Z" fill="#000614"/>
</svg>
