<svg width="25" height="24" viewBox="0 0 25 24" fill="none" xmlns="http://www.w3.org/2000/svg">
<path d="M6.73438 7.40332V24H1.00684V7.40332H6.73438ZM3.89258 0.723633C4.71289 0.723633 5.42578 0.894531 6.03125 1.23633C6.64648 1.57812 6.9541 2.25684 6.9541 3.27246C6.9541 4.25879 6.64648 4.92773 6.03125 5.2793C5.42578 5.62109 4.71289 5.79199 3.89258 5.79199C3.05273 5.79199 2.33496 5.62109 1.73926 5.2793C1.15332 4.92773 0.860352 4.25879 0.860352 3.27246C0.860352 2.25684 1.15332 1.57812 1.73926 1.23633C2.33496 0.894531 3.05273 0.723633 3.89258 0.723633ZM19.0191 7.11035C20.7281 7.11035 22.1246 7.59375 23.2086 8.56055C24.2926 9.52734 24.8346 11.0752 24.8346 13.2041V24H19.107V14.9473C19.107 13.8438 18.9459 13.0137 18.6236 12.457C18.3111 11.8906 17.8033 11.6074 17.1002 11.6074C16.0162 11.6074 15.2887 12.0518 14.9176 12.9404C14.5465 13.8193 14.3609 15.084 14.3609 16.7344V24H8.6334V7.40332H12.9547L13.7311 9.60059H13.9508C14.3023 9.07324 14.7223 8.62402 15.2105 8.25293C15.6988 7.88184 16.2604 7.59863 16.8951 7.40332C17.5299 7.20801 18.2379 7.11035 19.0191 7.11035Z" fill="#26C17E"/>
</svg>
